<svg width="471" height="777" viewBox="0 0 471 777" fill="none" xmlns="http://www.w3.org/2000/svg">
<g clip-path="url(#clip0_201_2)">
<mask id="path-1-inside-1_201_2" fill="white">
<path d="M223.827 0.207451C217.294 0.58672 203.406 1.91417 194.764 3.00457C161.844 7.0343 142.812 12.4863 120.693 24.1962C100.632 34.8157 87.927 45.1508 73.3185 62.7868C65.4999 72.2211 62.8766 76.1086 56.6525 87.6763C48.4738 102.894 44.2044 114.462 40.4494 131.861C37.8775 143.524 37.1574 151.63 37.5175 163.909C37.7747 172.111 37.9804 173.77 39.3178 178.606C41.3753 186.049 42.1983 191.928 41.5297 195.104C39.575 204.396 25.2237 227.532 9.58646 246.637C6.39728 250.525 3.10523 255.029 2.33366 256.593C-0.958393 262.946 -0.75264 268.635 2.84804 271.953C5.16277 274.087 12.5699 277.642 17.7652 279.16C19.8741 279.776 22.5489 280.914 23.6806 281.72C28.6186 285.133 28.773 288.878 24.2978 297.507C21.2115 303.433 20.7486 305.898 22.1374 308.411C23.3719 310.591 27.7442 314.005 31.6021 315.806C33.6082 316.755 35.3571 317.655 35.5114 317.892C35.6657 318.129 34.7912 319.362 33.5567 320.642C30.5219 323.818 29.6474 325.573 29.6474 328.322C29.6474 331.973 31.7049 335.149 36.1801 338.373C41.0667 341.834 43.2786 344.394 45.9019 349.514C48.0109 353.733 49.2968 357.905 49.9655 363.025C50.9429 370.611 54.3378 377.817 58.9158 381.989C66.3744 388.863 76.0962 389.479 93.8424 384.217C106.496 380.424 106.651 380.424 130.672 380.709C146.31 380.898 154.745 381.23 163.13 381.941C177.944 383.221 181.39 383.221 184.991 381.847C190.804 379.618 198.211 373.787 202.429 368.098C206.132 363.073 210.967 350.794 212.511 342.403C213.591 336.666 214.26 313.957 214.311 283C214.311 269.393 214.414 258.252 214.568 258.252C214.774 258.252 216.831 260.149 219.198 262.472C223.981 267.07 225.679 268.019 228.405 267.544C230.308 267.213 233.343 264.842 233.343 263.657C233.343 262.756 233.497 262.804 236.018 264.368C239.824 266.691 242.911 267.497 247.746 267.45C251.192 267.45 252.787 267.165 255.359 266.217L258.548 264.984V287.361C258.548 310.307 259.165 328.607 260.142 336.192C261.274 345.389 264.823 357.099 268.424 363.689C274.134 374.214 284.524 381.894 294.298 382.795C295.738 382.937 300.367 382.7 304.585 382.273C314.564 381.325 325.623 380.661 339.049 380.282C355.663 379.808 365.385 380.898 378.605 384.644C391.259 388.247 400.158 388.579 406.587 385.687C410.034 384.17 415.178 379.476 416.721 376.489C418.264 373.455 420.219 366.865 421.35 360.75C423.099 351.173 427.214 344.157 433.953 339.084C439.302 335.054 440.794 332.968 441.051 329.176C441.308 325.715 440.434 323.771 437.09 320.263C435.907 319.078 434.981 317.987 434.981 317.845C434.981 317.75 436.319 317.181 437.965 316.612C441.668 315.332 446.709 311.871 448.201 309.596C449.075 308.268 449.384 307.083 449.384 305.139C449.384 302.816 449.024 301.821 446.709 297.791C444.343 293.572 444.034 292.718 443.829 289.447C443.623 286.034 443.674 285.655 444.96 284.09C446.709 281.957 449.538 280.487 455.299 278.591C463.787 275.841 468.21 273.233 470.011 269.82C472.737 264.605 469.908 257.209 461.163 246.637C450.67 233.932 439.662 217.481 432.769 204.207L429.169 197.332L429.477 190.932C429.735 185.954 430.146 183.252 431.432 178.606C433.027 172.964 433.13 172.158 433.335 162.155C433.541 149.544 433.078 144.472 430.352 132.051C425.414 109.721 418.572 93.4601 405.867 73.833C399.54 64.0194 394.602 58.3778 383.594 48.185C373.05 38.5136 365.591 32.9194 355.252 26.9933C337.094 16.5634 317.496 9.73656 294.555 5.84905C270.122 1.72451 239.413 -0.740721 223.827 0.207451ZM183.242 37.0913C196.822 39.2721 208.961 45.3878 219.866 55.4384L225.113 60.3215L225.01 157.983L224.856 255.645L174.703 205.866C115.086 146.653 119.304 150.919 115.498 145.752C103.873 129.728 99.7064 109.058 104.284 89.6675C110.56 62.8342 133.193 41.6426 160.301 37.0913C165.702 36.1906 177.635 36.1906 183.242 37.0913ZM265.132 37.7551C266.572 38.3714 267.807 39.0351 267.807 39.2721C267.807 39.5092 267.138 40.6944 266.315 41.927C264.309 44.9137 262.92 48.3272 262.149 51.8828L261.531 54.7273L258.702 55.8177C257.159 56.434 254.947 57.6667 253.867 58.6623C252.17 60.1319 251.861 60.7008 251.861 62.4075C251.861 63.8772 252.17 64.6831 253.147 65.5365C254.947 67.2432 257.005 67.0536 259.834 65.0624C262.406 63.2609 264.823 62.6446 267.55 63.1186C268.527 63.3083 270.379 64.1616 271.665 65.0624C274.494 67.0536 276.551 67.2432 278.352 65.5365C279.278 64.7305 279.638 63.8772 279.638 62.5023C279.638 59.9897 277.889 58.1407 273.774 56.2918L270.482 54.7747L270.996 52.8784C272.128 48.0427 276.243 42.6855 280.975 39.6514C287.919 35.2898 298.104 35.2424 304.997 39.604C311.118 43.5389 315.644 50.9346 315.644 57.1926C315.644 60.9852 318.011 63.4505 320.943 62.7394C323.617 62.1231 324.389 60.8904 324.389 57.3348C324.389 54.5377 323.206 48.8961 322.074 46.2886C321.56 45.056 326.755 44.6767 331.385 45.5774C336.323 46.5256 339.923 48.2797 343.73 51.5983C352.268 59.1837 354.429 71.1781 349.028 81.0865C347.793 83.2673 347.279 83.7888 346.61 83.5517C339.769 80.8969 331.539 80.4228 325.16 82.2717C323.206 82.8406 321.045 83.5992 320.377 83.931C319.348 84.4999 318.782 84.3577 315.644 82.9354C312.97 81.7028 311.221 81.2287 308.495 81.0391C305.1 80.8494 304.842 80.8969 303.608 82.1295C300.882 84.8318 302.579 89.4778 306.283 89.4778C308.957 89.4778 312.815 90.8527 315.027 92.6068C317.856 94.835 319.708 98.201 320.222 102.136C320.531 104.696 320.891 105.502 322.023 106.403C323.926 107.872 325.675 107.778 327.527 106.118C328.813 104.933 329.018 104.364 329.018 102.183C329.018 99.3862 328.092 95.7357 326.807 93.4127C325.366 90.8526 325.469 90.7578 330.87 89.9519C345.479 87.7711 358.441 100.714 356.281 115.316C355.663 119.156 353.194 124.276 350.417 127.215C347.948 129.87 344.038 132.098 339.306 133.568C336.065 134.611 335.294 135.037 334.574 136.365C333.031 139.209 335.088 142.575 338.483 142.575C339.82 142.575 344.141 141.343 347.588 140.015C348.719 139.589 350.88 144.14 351.703 148.644C354.172 162.345 342.032 175.193 327.578 174.197C320.48 173.723 313.638 169.646 309.986 163.72C309.112 162.392 308.443 161.065 308.443 160.78C308.443 160.496 309.78 159.785 311.426 159.263C315.439 157.888 318.679 155.85 321.817 152.673C324.08 150.398 324.389 149.829 324.389 148.075C324.389 146.605 324.08 145.799 323.257 145.088C320.685 142.955 318.628 143.381 315.542 146.605C309.729 152.673 299.441 153.716 292.24 148.976C289.102 146.937 287.045 146.795 285.244 148.549C283.495 150.303 283.547 153.005 285.502 154.854C287.405 156.703 291.983 158.884 295.995 159.927C298.31 160.543 299.184 160.97 299.184 161.586C299.184 162.013 300.264 164.383 301.602 166.801C304.842 172.775 309.678 177.279 315.799 179.981C318.113 181.024 320.84 182.019 321.868 182.162C325.058 182.683 325.161 182.825 324.44 186.76C322.897 195.673 316.107 202.737 307.157 204.918C302.682 205.961 300.676 205.866 300.316 204.538C300.161 203.97 299.03 201.647 297.795 199.418C295.223 194.677 291.263 190.6 286.582 187.851C284.884 186.855 283.393 186.002 283.341 185.907C283.238 185.859 283.958 184.248 284.987 182.304C288.279 176.188 289.257 168.745 287.045 166.706C285.347 165.189 283.084 165.094 281.387 166.422C280.152 167.418 279.843 168.129 279.329 171.352C278.66 175.809 276.86 179.649 274.288 182.256C271.973 184.674 267.087 187.045 263.846 187.424C258.342 187.993 257.005 188.894 257.005 192.117C257.005 194.156 258.188 195.626 260.245 196.337C261.737 196.811 267.704 195.768 271.15 194.44C275.883 192.591 276.243 192.544 279.843 194.203C293.937 200.604 297.384 219.093 286.479 229.855C281.489 234.785 276.448 236.634 269.041 236.35C264.566 236.16 263.897 236.018 260.04 234.169C257.776 233.078 255.41 232.178 254.844 232.178C253.095 232.178 250.832 234.69 250.832 236.681C250.832 238.957 252.787 240.664 257.673 242.75L261.223 244.267L260.965 247.111C260.4 253.796 254.69 258.726 247.489 258.726C242.191 258.679 237.561 255.882 235.195 251.188L234.115 249.008L233.96 153.005C233.858 83.1251 233.96 56.2444 234.372 54.1584C236.018 46.1464 242.242 39.5566 250.575 36.9965C253.867 36.0009 261.788 36.4276 265.132 37.7551Z"/>
</mask>
<path d="M223.827 0.207451C217.294 0.58672 203.406 1.91417 194.764 3.00457C161.844 7.0343 142.812 12.4863 120.693 24.1962C100.632 34.8157 87.927 45.1508 73.3185 62.7868C65.4999 72.2211 62.8766 76.1086 56.6525 87.6763C48.4738 102.894 44.2044 114.462 40.4494 131.861C37.8775 143.524 37.1574 151.63 37.5175 163.909C37.7747 172.111 37.9804 173.77 39.3178 178.606C41.3753 186.049 42.1983 191.928 41.5297 195.104C39.575 204.396 25.2237 227.532 9.58646 246.637C6.39728 250.525 3.10523 255.029 2.33366 256.593C-0.958393 262.946 -0.75264 268.635 2.84804 271.953C5.16277 274.087 12.5699 277.642 17.7652 279.16C19.8741 279.776 22.5489 280.914 23.6806 281.72C28.6186 285.133 28.773 288.878 24.2978 297.507C21.2115 303.433 20.7486 305.898 22.1374 308.411C23.3719 310.591 27.7442 314.005 31.6021 315.806C33.6082 316.755 35.3571 317.655 35.5114 317.892C35.6657 318.129 34.7912 319.362 33.5567 320.642C30.5219 323.818 29.6474 325.573 29.6474 328.322C29.6474 331.973 31.7049 335.149 36.1801 338.373C41.0667 341.834 43.2786 344.394 45.9019 349.514C48.0109 353.733 49.2968 357.905 49.9655 363.025C50.9429 370.611 54.3378 377.817 58.9158 381.989C66.3744 388.863 76.0962 389.479 93.8424 384.217C106.496 380.424 106.651 380.424 130.672 380.709C146.31 380.898 154.745 381.23 163.13 381.941C177.944 383.221 181.39 383.221 184.991 381.847C190.804 379.618 198.211 373.787 202.429 368.098C206.132 363.073 210.967 350.794 212.511 342.403C213.591 336.666 214.26 313.957 214.311 283C214.311 269.393 214.414 258.252 214.568 258.252C214.774 258.252 216.831 260.149 219.198 262.472C223.981 267.07 225.679 268.019 228.405 267.544C230.308 267.213 233.343 264.842 233.343 263.657C233.343 262.756 233.497 262.804 236.018 264.368C239.824 266.691 242.911 267.497 247.746 267.45C251.192 267.45 252.787 267.165 255.359 266.217L258.548 264.984V287.361C258.548 310.307 259.165 328.607 260.142 336.192C261.274 345.389 264.823 357.099 268.424 363.689C274.134 374.214 284.524 381.894 294.298 382.795C295.738 382.937 300.367 382.7 304.585 382.273C314.564 381.325 325.623 380.661 339.049 380.282C355.663 379.808 365.385 380.898 378.605 384.644C391.259 388.247 400.158 388.579 406.587 385.687C410.034 384.17 415.178 379.476 416.721 376.489C418.264 373.455 420.219 366.865 421.35 360.75C423.099 351.173 427.214 344.157 433.953 339.084C439.302 335.054 440.794 332.968 441.051 329.176C441.308 325.715 440.434 323.771 437.09 320.263C435.907 319.078 434.981 317.987 434.981 317.845C434.981 317.75 436.319 317.181 437.965 316.612C441.668 315.332 446.709 311.871 448.201 309.596C449.075 308.268 449.384 307.083 449.384 305.139C449.384 302.816 449.024 301.821 446.709 297.791C444.343 293.572 444.034 292.718 443.829 289.447C443.623 286.034 443.674 285.655 444.96 284.09C446.709 281.957 449.538 280.487 455.299 278.591C463.787 275.841 468.21 273.233 470.011 269.82C472.737 264.605 469.908 257.209 461.163 246.637C450.67 233.932 439.662 217.481 432.769 204.207L429.169 197.332L429.477 190.932C429.735 185.954 430.146 183.252 431.432 178.606C433.027 172.964 433.13 172.158 433.335 162.155C433.541 149.544 433.078 144.472 430.352 132.051C425.414 109.721 418.572 93.4601 405.867 73.833C399.54 64.0194 394.602 58.3778 383.594 48.185C373.05 38.5136 365.591 32.9194 355.252 26.9933C337.094 16.5634 317.496 9.73656 294.555 5.84905C270.122 1.72451 239.413 -0.740721 223.827 0.207451ZM183.242 37.0913C196.822 39.2721 208.961 45.3878 219.866 55.4384L225.113 60.3215L225.01 157.983L224.856 255.645L174.703 205.866C115.086 146.653 119.304 150.919 115.498 145.752C103.873 129.728 99.7064 109.058 104.284 89.6675C110.56 62.8342 133.193 41.6426 160.301 37.0913C165.702 36.1906 177.635 36.1906 183.242 37.0913ZM265.132 37.7551C266.572 38.3714 267.807 39.0351 267.807 39.2721C267.807 39.5092 267.138 40.6944 266.315 41.927C264.309 44.9137 262.92 48.3272 262.149 51.8828L261.531 54.7273L258.702 55.8177C257.159 56.434 254.947 57.6667 253.867 58.6623C252.17 60.1319 251.861 60.7008 251.861 62.4075C251.861 63.8772 252.17 64.6831 253.147 65.5365C254.947 67.2432 257.005 67.0536 259.834 65.0624C262.406 63.2609 264.823 62.6446 267.55 63.1186C268.527 63.3083 270.379 64.1616 271.665 65.0624C274.494 67.0536 276.551 67.2432 278.352 65.5365C279.278 64.7305 279.638 63.8772 279.638 62.5023C279.638 59.9897 277.889 58.1407 273.774 56.2918L270.482 54.7747L270.996 52.8784C272.128 48.0427 276.243 42.6855 280.975 39.6514C287.919 35.2898 298.104 35.2424 304.997 39.604C311.118 43.5389 315.644 50.9346 315.644 57.1926C315.644 60.9852 318.011 63.4505 320.943 62.7394C323.617 62.1231 324.389 60.8904 324.389 57.3348C324.389 54.5377 323.206 48.8961 322.074 46.2886C321.56 45.056 326.755 44.6767 331.385 45.5774C336.323 46.5256 339.923 48.2797 343.73 51.5983C352.268 59.1837 354.429 71.1781 349.028 81.0865C347.793 83.2673 347.279 83.7888 346.61 83.5517C339.769 80.8969 331.539 80.4228 325.16 82.2717C323.206 82.8406 321.045 83.5992 320.377 83.931C319.348 84.4999 318.782 84.3577 315.644 82.9354C312.97 81.7028 311.221 81.2287 308.495 81.0391C305.1 80.8494 304.842 80.8969 303.608 82.1295C300.882 84.8318 302.579 89.4778 306.283 89.4778C308.957 89.4778 312.815 90.8527 315.027 92.6068C317.856 94.835 319.708 98.201 320.222 102.136C320.531 104.696 320.891 105.502 322.023 106.403C323.926 107.872 325.675 107.778 327.527 106.118C328.813 104.933 329.018 104.364 329.018 102.183C329.018 99.3862 328.092 95.7357 326.807 93.4127C325.366 90.8526 325.469 90.7578 330.87 89.9519C345.479 87.7711 358.441 100.714 356.281 115.316C355.663 119.156 353.194 124.276 350.417 127.215C347.948 129.87 344.038 132.098 339.306 133.568C336.065 134.611 335.294 135.037 334.574 136.365C333.031 139.209 335.088 142.575 338.483 142.575C339.82 142.575 344.141 141.343 347.588 140.015C348.719 139.589 350.88 144.14 351.703 148.644C354.172 162.345 342.032 175.193 327.578 174.197C320.48 173.723 313.638 169.646 309.986 163.72C309.112 162.392 308.443 161.065 308.443 160.78C308.443 160.496 309.78 159.785 311.426 159.263C315.439 157.888 318.679 155.85 321.817 152.673C324.08 150.398 324.389 149.829 324.389 148.075C324.389 146.605 324.08 145.799 323.257 145.088C320.685 142.955 318.628 143.381 315.542 146.605C309.729 152.673 299.441 153.716 292.24 148.976C289.102 146.937 287.045 146.795 285.244 148.549C283.495 150.303 283.547 153.005 285.502 154.854C287.405 156.703 291.983 158.884 295.995 159.927C298.31 160.543 299.184 160.97 299.184 161.586C299.184 162.013 300.264 164.383 301.602 166.801C304.842 172.775 309.678 177.279 315.799 179.981C318.113 181.024 320.84 182.019 321.868 182.162C325.058 182.683 325.161 182.825 324.44 186.76C322.897 195.673 316.107 202.737 307.157 204.918C302.682 205.961 300.676 205.866 300.316 204.538C300.161 203.97 299.03 201.647 297.795 199.418C295.223 194.677 291.263 190.6 286.582 187.851C284.884 186.855 283.393 186.002 283.341 185.907C283.238 185.859 283.958 184.248 284.987 182.304C288.279 176.188 289.257 168.745 287.045 166.706C285.347 165.189 283.084 165.094 281.387 166.422C280.152 167.418 279.843 168.129 279.329 171.352C278.66 175.809 276.86 179.649 274.288 182.256C271.973 184.674 267.087 187.045 263.846 187.424C258.342 187.993 257.005 188.894 257.005 192.117C257.005 194.156 258.188 195.626 260.245 196.337C261.737 196.811 267.704 195.768 271.15 194.44C275.883 192.591 276.243 192.544 279.843 194.203C293.937 200.604 297.384 219.093 286.479 229.855C281.489 234.785 276.448 236.634 269.041 236.35C264.566 236.16 263.897 236.018 260.04 234.169C257.776 233.078 255.41 232.178 254.844 232.178C253.095 232.178 250.832 234.69 250.832 236.681C250.832 238.957 252.787 240.664 257.673 242.75L261.223 244.267L260.965 247.111C260.4 253.796 254.69 258.726 247.489 258.726C242.191 258.679 237.561 255.882 235.195 251.188L234.115 249.008L233.96 153.005C233.858 83.1251 233.96 56.2444 234.372 54.1584C236.018 46.1464 242.242 39.5566 250.575 36.9965C253.867 36.0009 261.788 36.4276 265.132 37.7551Z" stroke="#28AD56" stroke-width="20" mask="url(#path-1-inside-1_201_2)"/>
<path d="M164.673 44.9611C152.688 46.336 141.732 51.3139 132.319 59.6104C120.385 70.1351 113.029 84.4051 111.64 99.8128C111.126 105.454 112.309 107.493 116.064 107.493C118.79 107.493 119.973 105.786 120.436 101.188C122.803 75.35 143.121 55.154 168.274 53.5895C173.624 53.2576 174.395 53.0206 175.527 50.982C176.195 49.7494 176.247 49.1805 175.784 47.6634C174.755 44.5818 172.646 44.0603 164.673 44.9611Z" fill="#28AD56"/>
<path d="M114.983 116.738C114.263 117.117 113.337 118.065 112.977 118.871C112.411 120.198 112.463 120.815 113.491 123.944C115.292 129.159 117.967 130.865 121.67 129.111C123.11 128.4 124.293 126.599 124.293 125.129C124.293 124.702 123.676 122.806 123.008 121.004C122.287 119.156 121.722 117.638 121.722 117.591C121.722 117.544 121.053 117.164 120.178 116.738C118.327 115.837 116.732 115.837 114.983 116.738Z" fill="#28AD56"/>
<path d="M275.213 99.9076C262.92 101.662 253.044 109.484 248.928 120.72C247.437 124.845 246.768 130.96 247.694 132.525C248.671 134.231 251.089 135.132 253.146 134.516C255.307 133.852 256.284 132.003 256.696 127.689C257.261 121.621 261.531 115.173 267.241 111.807C270.533 109.816 273.567 108.915 278.094 108.394C282.672 107.92 284.267 106.734 284.267 103.748C284.267 100.382 281.129 99.0542 275.213 99.9076Z" fill="#28AD56"/>
</g>
<g clip-path="url(#clip1_201_2)">
<path d="M73 388V393.153V402.962C73 419.004 73.6842 419.585 92.6711 419.585H105.5V479.348C105.5 516.171 105.842 541.688 106.355 545.678C109.947 571.861 127.993 595.467 153.053 606.688C165.796 612.423 176.401 614.085 200.776 614.085H219.079L219.421 619.239C219.507 622.148 219.507 651.572 219.25 684.737L218.822 744.999L205.566 745.415C191.368 745.83 188.974 746.495 187.605 750.069C187.092 751.233 186.75 756.137 186.75 760.958C186.75 770.683 187.947 774.423 191.539 776.086C193.079 776.751 206.25 777 236.27 777H278.947L281.599 774.59L284.25 772.179V760.958V749.737L281.599 747.576C279.033 745.498 278.691 745.415 266.461 745.415C259.533 745.415 253.375 745.082 252.776 744.75C251.921 744.168 251.75 730.536 251.921 679.251L252.178 614.501L274.414 614.002C297.507 613.421 304.092 612.589 312.901 609.181C339.158 598.875 357.118 579.009 363.961 552.577C364.645 550 365.158 528.306 365.414 484.419L365.928 420.001L379.355 419.752L392.697 419.585H393.179C395.842 419.585 398 417.427 398 414.765V403.793V392.821V388H393.04H369.862C347.882 388 346.428 388.083 342.75 389.829C340.27 390.909 337.961 392.821 336.592 394.899C334.368 398.224 334.283 398.722 333.684 415.762C333.257 425.404 333.086 457.987 333.257 488.159L333.428 543.018L331.204 549.003C324.447 566.874 311.533 577.928 292.803 581.669C289.895 582.251 281.257 582.5 270.138 582.334L252.178 582.084V501.043V420.001L265.605 419.752L279.033 419.502H279.25C282.011 419.502 284.25 417.264 284.25 414.502V414.432V403.626V392.821C284.25 390.158 282.092 388 279.429 388H278.947H236.27C206.25 388 193.079 388.249 191.539 388.914C187.947 390.494 188 394.151 188 403.626C188 413.102 187.947 417.092 191.539 418.671C192.822 419.253 198.724 419.585 206.421 419.585H219.25L219.421 499.962C219.592 544.265 219.507 580.921 219.336 581.419C218.908 582.999 182.987 582.832 176.23 581.253C159.296 577.347 146.724 566.292 139.967 549.252C138.599 545.844 138.428 539.278 138 472.366C137.572 392.572 137.829 396.977 132.697 392.488C127.822 388.166 126.882 388 101.737 388H78.3026H73Z" fill="#2C5291"/>
</g>
<defs>
<clipPath id="clip0_201_2">
<rect width="471" height="387.697" fill="white"/>
</clipPath>
<clipPath id="clip1_201_2">
<rect x="73" y="388" width="325" height="389" rx="5" fill="white"/>
</clipPath>
</defs>
</svg>
