<svg width="471" height="777" viewBox="0 0 471 777" fill="none" xmlns="http://www.w3.org/2000/svg">
<g clip-path="url(#clip0_102_2)">
<mask id="path-1-inside-1_102_2" fill="white">
<path d="M223.827 0.207458C217.294 0.586731 203.406 1.91418 194.764 3.00458C161.844 7.0343 142.812 12.4863 120.693 24.1962C100.632 34.8157 87.927 45.1508 73.3185 62.7868C65.4999 72.2211 62.8766 76.1086 56.6525 87.6763C48.4738 102.894 44.2044 114.462 40.4494 131.861C37.8775 143.524 37.1574 151.63 37.5175 163.909C37.7747 172.111 37.9804 173.77 39.3178 178.606C41.3753 186.049 42.1983 191.928 41.5297 195.104C39.575 204.396 25.2237 227.532 9.58646 246.637C6.39728 250.525 3.10523 255.029 2.33366 256.593C-0.958393 262.946 -0.75264 268.635 2.84804 271.953C5.16277 274.087 12.5699 277.642 17.7652 279.16C19.8741 279.776 22.5489 280.914 23.6806 281.72C28.6186 285.133 28.7729 288.878 24.2978 297.507C21.2115 303.433 20.7486 305.898 22.1374 308.411C23.3719 310.591 27.7442 314.005 31.6021 315.806C33.6082 316.755 35.3571 317.655 35.5114 317.892C35.6657 318.129 34.7912 319.362 33.5567 320.642C30.5219 323.818 29.6474 325.573 29.6474 328.322C29.6474 331.973 31.7049 335.149 36.1801 338.373C41.0667 341.834 43.2786 344.394 45.9019 349.514C48.0109 353.733 49.2968 357.905 49.9655 363.025C50.9429 370.611 54.3378 377.817 58.9158 381.989C66.3744 388.863 76.0962 389.479 93.8424 384.217C106.496 380.424 106.651 380.424 130.672 380.709C146.31 380.898 154.745 381.23 163.13 381.941C177.944 383.221 181.39 383.221 184.991 381.847C190.804 379.618 198.211 373.787 202.429 368.098C206.132 363.073 210.967 350.794 212.511 342.403C213.591 336.666 214.26 313.957 214.311 283C214.311 269.393 214.414 258.252 214.568 258.252C214.774 258.252 216.831 260.149 219.198 262.472C223.981 267.07 225.679 268.019 228.405 267.544C230.308 267.213 233.343 264.842 233.343 263.657C233.343 262.756 233.497 262.804 236.018 264.368C239.824 266.691 242.911 267.497 247.746 267.45C251.192 267.45 252.787 267.165 255.359 266.217L258.548 264.984V287.361C258.548 310.307 259.165 328.607 260.142 336.192C261.274 345.389 264.823 357.099 268.424 363.689C274.134 374.214 284.524 381.894 294.298 382.795C295.738 382.937 300.367 382.7 304.585 382.273C314.564 381.325 325.623 380.661 339.049 380.282C355.663 379.808 365.385 380.898 378.605 384.644C391.259 388.247 400.158 388.579 406.587 385.687C410.034 384.17 415.178 379.476 416.721 376.489C418.264 373.455 420.219 366.865 421.35 360.75C423.099 351.173 427.214 344.157 433.953 339.084C439.302 335.054 440.794 332.968 441.051 329.176C441.308 325.715 440.434 323.771 437.09 320.263C435.907 319.078 434.981 317.987 434.981 317.845C434.981 317.75 436.319 317.181 437.965 316.612C441.668 315.332 446.709 311.871 448.201 309.596C449.075 308.268 449.384 307.083 449.384 305.139C449.384 302.816 449.024 301.821 446.709 297.791C444.343 293.572 444.034 292.718 443.829 289.447C443.623 286.034 443.674 285.655 444.96 284.09C446.709 281.957 449.538 280.487 455.299 278.591C463.787 275.841 468.21 273.233 470.011 269.82C472.737 264.605 469.908 257.209 461.163 246.637C450.67 233.932 439.662 217.481 432.769 204.207L429.169 197.332L429.477 190.932C429.735 185.954 430.146 183.252 431.432 178.606C433.027 172.964 433.13 172.158 433.335 162.155C433.541 149.544 433.078 144.472 430.352 132.051C425.414 109.721 418.572 93.4601 405.867 73.833C399.54 64.0194 394.602 58.3778 383.594 48.185C373.05 38.5136 365.591 32.9193 355.252 26.9933C337.094 16.5634 317.496 9.73654 294.555 5.84906C270.122 1.72452 239.413 -0.740723 223.827 0.207458ZM183.242 37.0913C196.822 39.2721 208.961 45.3878 219.866 55.4384L225.113 60.3215L225.01 157.983L224.856 255.645L174.703 205.866C115.086 146.653 119.304 150.919 115.498 145.752C103.873 129.728 99.7064 109.058 104.284 89.6675C110.56 62.8342 133.193 41.6425 160.301 37.0913C165.702 36.1906 177.635 36.1906 183.242 37.0913ZM265.132 37.7551C266.572 38.3714 267.807 39.0351 267.807 39.2722C267.807 39.5092 267.138 40.6944 266.315 41.927C264.309 44.9137 262.92 48.3271 262.149 51.8828L261.531 54.7273L258.702 55.8177C257.159 56.4341 254.947 57.6667 253.867 58.6623C252.17 60.1319 251.861 60.7008 251.861 62.4075C251.861 63.8772 252.17 64.6831 253.147 65.5365C254.947 67.2432 257.005 67.0536 259.834 65.0624C262.406 63.2609 264.823 62.6446 267.55 63.1187C268.527 63.3083 270.379 64.1616 271.665 65.0624C274.494 67.0536 276.551 67.2432 278.352 65.5365C279.278 64.7305 279.638 63.8772 279.638 62.5023C279.638 59.9897 277.889 58.1407 273.774 56.2918L270.482 54.7747L270.996 52.8784C272.128 48.0427 276.243 42.6855 280.975 39.6514C287.919 35.2898 298.104 35.2424 304.997 39.604C311.118 43.5389 315.644 50.9346 315.644 57.1926C315.644 60.9852 318.011 63.4505 320.943 62.7394C323.617 62.123 324.389 60.8904 324.389 57.3348C324.389 54.5377 323.206 48.8961 322.074 46.2886C321.56 45.056 326.755 44.6767 331.385 45.5775C336.323 46.5256 339.923 48.2798 343.73 51.5984C352.268 59.1837 354.429 71.1781 349.028 81.0865C347.793 83.2673 347.279 83.7888 346.61 83.5518C339.769 80.8969 331.539 80.4228 325.16 82.2717C323.206 82.8406 321.045 83.5992 320.377 83.931C319.348 84.4999 318.782 84.3577 315.644 82.9354C312.97 81.7028 311.221 81.2287 308.495 81.0391C305.1 80.8495 304.842 80.8969 303.608 82.1295C300.882 84.8318 302.579 89.4778 306.283 89.4778C308.957 89.4778 312.815 90.8527 315.027 92.6068C317.856 94.835 319.708 98.201 320.222 102.136C320.531 104.696 320.891 105.502 322.023 106.403C323.926 107.872 325.675 107.778 327.527 106.118C328.813 104.933 329.018 104.364 329.018 102.183C329.018 99.3862 328.092 95.7357 326.807 93.4127C325.366 90.8526 325.469 90.7578 330.87 89.9519C345.479 87.7711 358.441 100.714 356.281 115.316C355.663 119.156 353.194 124.276 350.417 127.215C347.948 129.87 344.038 132.098 339.306 133.568C336.065 134.611 335.294 135.037 334.574 136.365C333.031 139.209 335.088 142.575 338.483 142.575C339.82 142.575 344.141 141.343 347.588 140.015C348.719 139.589 350.88 144.14 351.703 148.644C354.172 162.345 342.032 175.193 327.578 174.197C320.48 173.723 313.638 169.646 309.986 163.72C309.112 162.392 308.443 161.065 308.443 160.78C308.443 160.496 309.78 159.785 311.426 159.263C315.439 157.888 318.679 155.85 321.817 152.673C324.08 150.398 324.389 149.829 324.389 148.075C324.389 146.605 324.08 145.799 323.257 145.088C320.685 142.955 318.628 143.381 315.542 146.605C309.729 152.673 299.441 153.716 292.24 148.976C289.102 146.937 287.045 146.795 285.244 148.549C283.495 150.303 283.547 153.005 285.502 154.854C287.405 156.703 291.983 158.884 295.995 159.927C298.31 160.543 299.184 160.97 299.184 161.586C299.184 162.013 300.264 164.383 301.602 166.801C304.842 172.775 309.678 177.279 315.799 179.981C318.113 181.024 320.84 182.019 321.868 182.162C325.058 182.683 325.16 182.825 324.44 186.76C322.897 195.673 316.107 202.737 307.157 204.918C302.682 205.961 300.676 205.866 300.316 204.538C300.161 203.97 299.03 201.646 297.795 199.418C295.223 194.677 291.263 190.6 286.582 187.851C284.884 186.855 283.393 186.002 283.341 185.907C283.238 185.859 283.958 184.248 284.987 182.304C288.279 176.188 289.257 168.745 287.045 166.706C285.347 165.189 283.084 165.094 281.387 166.422C280.152 167.418 279.843 168.129 279.329 171.352C278.66 175.809 276.86 179.649 274.288 182.256C271.973 184.674 267.087 187.045 263.846 187.424C258.342 187.993 257.005 188.894 257.005 192.117C257.005 194.156 258.188 195.626 260.245 196.337C261.737 196.811 267.704 195.768 271.15 194.44C275.883 192.591 276.243 192.544 279.843 194.203C293.937 200.604 297.384 219.093 286.479 229.855C281.489 234.785 276.448 236.634 269.041 236.35C264.566 236.16 263.897 236.018 260.04 234.169C257.776 233.078 255.41 232.178 254.844 232.178C253.095 232.178 250.832 234.69 250.832 236.681C250.832 238.957 252.787 240.664 257.673 242.75L261.223 244.267L260.965 247.111C260.4 253.796 254.69 258.726 247.489 258.726C242.191 258.679 237.561 255.882 235.195 251.188L234.115 249.008L233.96 153.005C233.858 83.1251 233.96 56.2444 234.372 54.1584C236.018 46.1464 242.242 39.5566 250.575 36.9965C253.867 36.0009 261.789 36.4276 265.132 37.7551Z"/>
</mask>
<path d="M223.827 0.207458C217.294 0.586731 203.406 1.91418 194.764 3.00458C161.844 7.0343 142.812 12.4863 120.693 24.1962C100.632 34.8157 87.927 45.1508 73.3185 62.7868C65.4999 72.2211 62.8766 76.1086 56.6525 87.6763C48.4738 102.894 44.2044 114.462 40.4494 131.861C37.8775 143.524 37.1574 151.63 37.5175 163.909C37.7747 172.111 37.9804 173.77 39.3178 178.606C41.3753 186.049 42.1983 191.928 41.5297 195.104C39.575 204.396 25.2237 227.532 9.58646 246.637C6.39728 250.525 3.10523 255.029 2.33366 256.593C-0.958393 262.946 -0.75264 268.635 2.84804 271.953C5.16277 274.087 12.5699 277.642 17.7652 279.16C19.8741 279.776 22.5489 280.914 23.6806 281.72C28.6186 285.133 28.7729 288.878 24.2978 297.507C21.2115 303.433 20.7486 305.898 22.1374 308.411C23.3719 310.591 27.7442 314.005 31.6021 315.806C33.6082 316.755 35.3571 317.655 35.5114 317.892C35.6657 318.129 34.7912 319.362 33.5567 320.642C30.5219 323.818 29.6474 325.573 29.6474 328.322C29.6474 331.973 31.7049 335.149 36.1801 338.373C41.0667 341.834 43.2786 344.394 45.9019 349.514C48.0109 353.733 49.2968 357.905 49.9655 363.025C50.9429 370.611 54.3378 377.817 58.9158 381.989C66.3744 388.863 76.0962 389.479 93.8424 384.217C106.496 380.424 106.651 380.424 130.672 380.709C146.31 380.898 154.745 381.23 163.13 381.941C177.944 383.221 181.39 383.221 184.991 381.847C190.804 379.618 198.211 373.787 202.429 368.098C206.132 363.073 210.967 350.794 212.511 342.403C213.591 336.666 214.26 313.957 214.311 283C214.311 269.393 214.414 258.252 214.568 258.252C214.774 258.252 216.831 260.149 219.198 262.472C223.981 267.07 225.679 268.019 228.405 267.544C230.308 267.213 233.343 264.842 233.343 263.657C233.343 262.756 233.497 262.804 236.018 264.368C239.824 266.691 242.911 267.497 247.746 267.45C251.192 267.45 252.787 267.165 255.359 266.217L258.548 264.984V287.361C258.548 310.307 259.165 328.607 260.142 336.192C261.274 345.389 264.823 357.099 268.424 363.689C274.134 374.214 284.524 381.894 294.298 382.795C295.738 382.937 300.367 382.7 304.585 382.273C314.564 381.325 325.623 380.661 339.049 380.282C355.663 379.808 365.385 380.898 378.605 384.644C391.259 388.247 400.158 388.579 406.587 385.687C410.034 384.17 415.178 379.476 416.721 376.489C418.264 373.455 420.219 366.865 421.35 360.75C423.099 351.173 427.214 344.157 433.953 339.084C439.302 335.054 440.794 332.968 441.051 329.176C441.308 325.715 440.434 323.771 437.09 320.263C435.907 319.078 434.981 317.987 434.981 317.845C434.981 317.75 436.319 317.181 437.965 316.612C441.668 315.332 446.709 311.871 448.201 309.596C449.075 308.268 449.384 307.083 449.384 305.139C449.384 302.816 449.024 301.821 446.709 297.791C444.343 293.572 444.034 292.718 443.829 289.447C443.623 286.034 443.674 285.655 444.96 284.09C446.709 281.957 449.538 280.487 455.299 278.591C463.787 275.841 468.21 273.233 470.011 269.82C472.737 264.605 469.908 257.209 461.163 246.637C450.67 233.932 439.662 217.481 432.769 204.207L429.169 197.332L429.477 190.932C429.735 185.954 430.146 183.252 431.432 178.606C433.027 172.964 433.13 172.158 433.335 162.155C433.541 149.544 433.078 144.472 430.352 132.051C425.414 109.721 418.572 93.4601 405.867 73.833C399.54 64.0194 394.602 58.3778 383.594 48.185C373.05 38.5136 365.591 32.9193 355.252 26.9933C337.094 16.5634 317.496 9.73654 294.555 5.84906C270.122 1.72452 239.413 -0.740723 223.827 0.207458ZM183.242 37.0913C196.822 39.2721 208.961 45.3878 219.866 55.4384L225.113 60.3215L225.01 157.983L224.856 255.645L174.703 205.866C115.086 146.653 119.304 150.919 115.498 145.752C103.873 129.728 99.7064 109.058 104.284 89.6675C110.56 62.8342 133.193 41.6425 160.301 37.0913C165.702 36.1906 177.635 36.1906 183.242 37.0913ZM265.132 37.7551C266.572 38.3714 267.807 39.0351 267.807 39.2722C267.807 39.5092 267.138 40.6944 266.315 41.927C264.309 44.9137 262.92 48.3271 262.149 51.8828L261.531 54.7273L258.702 55.8177C257.159 56.4341 254.947 57.6667 253.867 58.6623C252.17 60.1319 251.861 60.7008 251.861 62.4075C251.861 63.8772 252.17 64.6831 253.147 65.5365C254.947 67.2432 257.005 67.0536 259.834 65.0624C262.406 63.2609 264.823 62.6446 267.55 63.1187C268.527 63.3083 270.379 64.1616 271.665 65.0624C274.494 67.0536 276.551 67.2432 278.352 65.5365C279.278 64.7305 279.638 63.8772 279.638 62.5023C279.638 59.9897 277.889 58.1407 273.774 56.2918L270.482 54.7747L270.996 52.8784C272.128 48.0427 276.243 42.6855 280.975 39.6514C287.919 35.2898 298.104 35.2424 304.997 39.604C311.118 43.5389 315.644 50.9346 315.644 57.1926C315.644 60.9852 318.011 63.4505 320.943 62.7394C323.617 62.123 324.389 60.8904 324.389 57.3348C324.389 54.5377 323.206 48.8961 322.074 46.2886C321.56 45.056 326.755 44.6767 331.385 45.5775C336.323 46.5256 339.923 48.2798 343.73 51.5984C352.268 59.1837 354.429 71.1781 349.028 81.0865C347.793 83.2673 347.279 83.7888 346.61 83.5518C339.769 80.8969 331.539 80.4228 325.16 82.2717C323.206 82.8406 321.045 83.5992 320.377 83.931C319.348 84.4999 318.782 84.3577 315.644 82.9354C312.97 81.7028 311.221 81.2287 308.495 81.0391C305.1 80.8495 304.842 80.8969 303.608 82.1295C300.882 84.8318 302.579 89.4778 306.283 89.4778C308.957 89.4778 312.815 90.8527 315.027 92.6068C317.856 94.835 319.708 98.201 320.222 102.136C320.531 104.696 320.891 105.502 322.023 106.403C323.926 107.872 325.675 107.778 327.527 106.118C328.813 104.933 329.018 104.364 329.018 102.183C329.018 99.3862 328.092 95.7357 326.807 93.4127C325.366 90.8526 325.469 90.7578 330.87 89.9519C345.479 87.7711 358.441 100.714 356.281 115.316C355.663 119.156 353.194 124.276 350.417 127.215C347.948 129.87 344.038 132.098 339.306 133.568C336.065 134.611 335.294 135.037 334.574 136.365C333.031 139.209 335.088 142.575 338.483 142.575C339.82 142.575 344.141 141.343 347.588 140.015C348.719 139.589 350.88 144.14 351.703 148.644C354.172 162.345 342.032 175.193 327.578 174.197C320.48 173.723 313.638 169.646 309.986 163.72C309.112 162.392 308.443 161.065 308.443 160.78C308.443 160.496 309.78 159.785 311.426 159.263C315.439 157.888 318.679 155.85 321.817 152.673C324.08 150.398 324.389 149.829 324.389 148.075C324.389 146.605 324.08 145.799 323.257 145.088C320.685 142.955 318.628 143.381 315.542 146.605C309.729 152.673 299.441 153.716 292.24 148.976C289.102 146.937 287.045 146.795 285.244 148.549C283.495 150.303 283.547 153.005 285.502 154.854C287.405 156.703 291.983 158.884 295.995 159.927C298.31 160.543 299.184 160.97 299.184 161.586C299.184 162.013 300.264 164.383 301.602 166.801C304.842 172.775 309.678 177.279 315.799 179.981C318.113 181.024 320.84 182.019 321.868 182.162C325.058 182.683 325.16 182.825 324.44 186.76C322.897 195.673 316.107 202.737 307.157 204.918C302.682 205.961 300.676 205.866 300.316 204.538C300.161 203.97 299.03 201.646 297.795 199.418C295.223 194.677 291.263 190.6 286.582 187.851C284.884 186.855 283.393 186.002 283.341 185.907C283.238 185.859 283.958 184.248 284.987 182.304C288.279 176.188 289.257 168.745 287.045 166.706C285.347 165.189 283.084 165.094 281.387 166.422C280.152 167.418 279.843 168.129 279.329 171.352C278.66 175.809 276.86 179.649 274.288 182.256C271.973 184.674 267.087 187.045 263.846 187.424C258.342 187.993 257.005 188.894 257.005 192.117C257.005 194.156 258.188 195.626 260.245 196.337C261.737 196.811 267.704 195.768 271.15 194.44C275.883 192.591 276.243 192.544 279.843 194.203C293.937 200.604 297.384 219.093 286.479 229.855C281.489 234.785 276.448 236.634 269.041 236.35C264.566 236.16 263.897 236.018 260.04 234.169C257.776 233.078 255.41 232.178 254.844 232.178C253.095 232.178 250.832 234.69 250.832 236.681C250.832 238.957 252.787 240.664 257.673 242.75L261.223 244.267L260.965 247.111C260.4 253.796 254.69 258.726 247.489 258.726C242.191 258.679 237.561 255.882 235.195 251.188L234.115 249.008L233.96 153.005C233.858 83.1251 233.96 56.2444 234.372 54.1584C236.018 46.1464 242.242 39.5566 250.575 36.9965C253.867 36.0009 261.789 36.4276 265.132 37.7551Z" fill="white" stroke="#2C5291" stroke-width="20" mask="url(#path-1-inside-1_102_2)"/>
<path d="M164.673 44.9611C152.688 46.336 141.732 51.3139 132.319 59.6104C120.385 70.1351 113.029 84.4051 111.64 99.8128C111.126 105.454 112.309 107.493 116.064 107.493C118.79 107.493 119.973 105.786 120.436 101.188C122.803 75.35 143.121 55.154 168.274 53.5895C173.624 53.2576 174.395 53.0206 175.527 50.982C176.195 49.7494 176.247 49.1805 175.784 47.6634C174.755 44.5818 172.646 44.0603 164.673 44.9611Z" fill="#2C5291"/>
<path d="M114.983 116.738C114.263 117.117 113.337 118.065 112.977 118.871C112.411 120.198 112.463 120.815 113.491 123.944C115.292 129.159 117.967 130.865 121.67 129.111C123.11 128.4 124.293 126.599 124.293 125.129C124.293 124.702 123.676 122.806 123.008 121.004C122.287 119.156 121.722 117.638 121.722 117.591C121.722 117.544 121.053 117.164 120.178 116.738C118.327 115.837 116.732 115.837 114.983 116.738Z" fill="#2C5291"/>
<path d="M275.213 99.9076C262.92 101.662 253.044 109.484 248.928 120.72C247.437 124.845 246.768 130.96 247.694 132.525C248.671 134.231 251.089 135.132 253.146 134.516C255.307 133.852 256.284 132.003 256.696 127.689C257.261 121.621 261.531 115.173 267.241 111.807C270.533 109.816 273.567 108.915 278.094 108.394C282.672 107.92 284.267 106.734 284.267 103.748C284.267 100.382 281.129 99.0542 275.213 99.9076Z" fill="#2C5291"/>
<path d="M217.611 256.814L257.132 260.253L265.492 245.123L284.492 239.162L298.933 213.028L315.4 209.36L328.066 183.914H334.907L354.414 160.76L350.107 139.899L358.214 114.911L350.107 94.7377L354.414 74.1056L350.107 58.9754L331.613 50.9518L311.093 47.0546L293.359 39.2603L271.572 42.9282H244.718L227.744 62.4141L218.624 53.4735L186.197 39.2603L154.023 42.9282L117.795 62.4141L99.3018 96.5717L107.155 143.338L217.611 256.814Z" fill="white" stroke="black"/>
<path d="M345.165 134.647C345.148 134.647 345.148 134.679 345.131 134.698C342.425 136.463 339.441 137.623 336.247 138.143C333.804 138.548 332.164 140.751 332.582 143.104C332.931 145.207 334.834 146.704 336.981 146.704C337.225 146.704 337.469 146.685 337.713 146.637C340.837 146.131 343.804 145.157 346.597 143.794C347.434 145.122 348.273 146.586 348.517 147.04C349.459 149.141 350.052 151.344 350.262 153.581C350.262 153.598 350.262 153.614 350.279 153.632C350.348 154.304 350.384 154.993 350.384 155.667C350.384 167.47 340.453 177.071 327.836 177.172C318.586 177.089 310.629 171.641 307.366 163.67C313.176 162.459 318.605 159.382 322.6 154.573C324.137 152.723 323.822 150.016 321.902 148.536C319.982 147.04 317.173 147.36 315.619 149.192C312.635 152.79 308.377 155.043 303.648 155.565C298.902 156.053 294.223 154.758 290.508 151.883C288.569 150.403 285.76 150.723 284.225 152.571C282.688 154.422 283.003 157.129 284.923 158.609C288.832 161.635 293.37 163.366 298.029 163.972C301.379 175.407 311.38 183.781 323.542 185.463C323.542 185.581 323.578 185.682 323.578 185.799C323.578 197.67 313.56 207.323 301.24 207.323C300.717 207.323 300.298 207.222 299.808 207.206C297.138 198.696 290.752 191.869 282.427 188.373C285.812 184.05 287.837 178.703 287.837 172.884C287.837 170.513 285.829 168.58 283.369 168.58C280.909 168.58 278.9 170.513 278.9 172.884C278.9 182.386 270.891 190.104 261.031 190.104C258.571 190.104 256.563 192.037 256.563 194.408C256.563 196.779 258.571 198.713 261.031 198.713C266.074 198.713 270.786 197.334 274.817 194.997C283.474 196.846 290.281 203.454 291.921 211.998C291.921 212.014 291.938 212.031 291.938 212.049C292.182 213.209 292.304 214.503 292.304 215.932C292.304 227.805 282.288 237.456 269.966 237.456C268.536 237.456 267.087 237.322 265.655 237.053C265.655 237.053 265.655 237.053 265.638 237.053C262.776 236.515 260.07 235.438 257.61 233.875C255.568 232.546 252.795 233.085 251.432 235.069C250.055 237.053 250.612 239.726 252.671 241.038C255.236 242.686 258.012 243.947 260.943 244.787C260.979 245.208 261.031 245.628 261.031 246.065C261.031 253.196 255.028 258.98 247.628 258.98C244.697 258.98 241.869 258.055 239.444 256.273C236.128 253.868 234.225 250.153 234.225 246.065V65.2665C234.225 53.394 244.243 43.7426 256.563 43.7426C259.809 43.7426 262.951 44.4147 265.918 45.7267C266.564 46.0122 267.14 46.3483 267.749 46.6844C264.225 51.0232 261.973 56.186 261.275 61.6343C258.15 62.3409 255.202 63.7521 252.864 66.0055C251.119 67.688 251.119 70.4111 252.864 72.0936C254.609 73.7741 257.435 73.7741 259.181 72.0936C262.566 68.8481 268.431 68.8481 271.816 72.0936C272.689 72.9338 273.822 73.355 274.975 73.355C276.127 73.355 277.26 72.9338 278.133 72.0936C279.878 70.4111 279.878 67.688 278.133 66.0055C275.952 63.8877 273.196 62.5413 270.298 61.8024C271.101 57.0424 273.545 52.6206 277.313 49.3245C277.349 49.2921 277.401 49.2921 277.435 49.2577C281.502 45.7105 286.79 43.7426 292.304 43.7426C299.548 43.7426 306.371 47.1399 310.541 52.8555C310.56 52.8555 310.56 52.8555 310.56 52.8555C313.228 56.5059 314.643 60.7941 314.643 65.2665C314.643 67.6374 316.649 69.5709 319.11 69.5709C321.572 69.5709 323.578 67.6374 323.578 65.2665C323.578 60.9439 322.583 56.7752 320.769 52.9061C321.292 52.8048 321.816 52.6712 322.356 52.6044C322.863 52.5376 323.387 52.4688 323.891 52.4364C324.52 52.3858 325.182 52.3513 325.811 52.3513C339.355 52.3513 350.384 62.9787 350.384 76.0275C350.384 78.8033 349.808 81.6276 348.586 84.9238C348.428 85.3429 348.201 85.764 347.905 86.3187C347.329 87.4971 346.597 88.6228 345.794 89.7161C337.015 85.7984 326.509 86.0333 317.94 90.3538C314.433 88.1024 310.227 86.7905 305.707 86.7905C303.246 86.7905 301.24 88.724 301.24 91.0949C301.24 93.4657 303.246 95.3992 305.707 95.3992C313.106 95.3992 319.11 101.184 319.11 108.314C319.11 110.685 321.118 112.619 323.578 112.619C326.038 112.619 328.046 110.685 328.046 108.314C328.046 104.109 326.736 100.208 324.556 96.8955C330.925 94.5914 338.341 95.0976 344.206 98.5941C344.259 98.6103 344.328 98.6103 344.364 98.6447C344.433 98.6954 344.467 98.7622 344.538 98.8128C350.994 102.781 354.85 109.558 354.85 116.923C354.85 124.003 351.238 130.628 345.165 134.647ZM225.29 255.886L124.751 157.902C97.9807 131.823 97.9807 89.4124 124.768 63.333C137.664 50.7033 154.821 43.7426 173.075 43.7426C191.329 43.7426 208.483 50.7033 221.398 63.333L225.29 67.1494V255.886ZM353.315 94.4416C354.346 93.0284 355.235 91.5484 355.969 90.0522C356.352 89.3111 356.72 88.556 356.997 87.8149C358.568 83.628 359.319 79.7771 359.319 76.0275C359.319 58.2208 344.292 43.7426 325.811 43.7426C325.008 43.7426 324.154 43.7932 323.298 43.8438C322.514 43.8944 321.78 43.9774 321.118 44.0787C319.267 44.3135 317.453 44.7002 315.672 45.2388C309.773 38.8652 301.274 35.1338 292.304 35.1338C285.865 35.1338 279.651 37.0329 274.451 40.5477C272.95 39.5212 271.345 38.6465 269.634 37.8913C265.516 36.057 261.117 35.1338 256.563 35.1338C242.533 35.1338 230.648 44.0787 226.687 56.354C212.218 42.6837 193.265 35.1338 173.075 35.1338C152.394 35.1338 132.987 43.0015 118.399 57.2955C88.207 86.6892 88.207 134.546 118.399 163.939L222.828 265.74C224.102 266.951 225.795 267.589 227.524 267.589C228.396 267.589 229.269 267.421 230.125 267.085C231.992 266.327 233.352 264.815 233.929 263.015C233.981 263.066 234.015 263.1 234.051 263.133C238.012 266.042 242.708 267.589 247.628 267.589C259.948 267.589 269.966 257.937 269.966 246.065C287.209 246.065 301.24 232.546 301.24 215.932C318.483 215.932 332.513 202.414 332.513 185.799C332.513 185.698 332.513 185.597 332.513 185.496C347.644 183.394 359.319 170.817 359.319 155.667C359.319 154.707 359.266 153.699 359.161 152.739C358.848 149.613 358.028 146.568 356.684 143.541C356.23 142.6 355.271 140.682 354.03 138.783C360.208 133.151 363.787 125.246 363.787 116.923C363.787 108.213 359.947 100.109 353.315 94.4416Z" fill="#2C5291"/>
<path d="M279.402 104.87C261.579 104.87 247.072 118.319 247.072 134.845C247.072 137.203 249.146 139.127 251.692 139.127C254.235 139.127 256.309 137.203 256.309 134.845C256.309 123.036 266.666 113.435 279.402 113.435C281.948 113.435 284.022 111.512 284.022 109.154C284.022 106.796 281.948 104.87 279.402 104.87Z" fill="white"/>
<path d="M172.808 51.6503C156.953 51.6503 142.041 57.7949 130.815 68.9579C120.183 79.455 113.983 93.417 113.354 108.265C113.25 110.69 115.171 112.72 117.633 112.823C117.685 112.823 117.755 112.823 117.824 112.823C120.199 112.823 122.19 110.979 122.276 108.641C122.819 95.959 128.108 84.046 137.171 75.086C146.722 65.6123 159.362 60.3904 172.808 60.3904C175.269 60.3904 177.278 58.4258 177.278 56.0193C177.278 53.6129 175.269 51.6503 172.808 51.6503Z" fill="white"/>
<path d="M124.412 124.034C123.643 121.65 120.869 120.266 118.193 120.95C115.516 121.617 113.963 124.087 114.71 126.488C115.222 128.117 115.831 129.729 116.5 131.324C117.249 133.128 119.177 134.233 121.204 134.233C121.794 134.233 122.403 134.144 122.975 133.952C125.592 133.077 126.911 130.482 125.927 128.17C125.355 126.802 124.843 125.435 124.412 124.034Z" fill="white"/>
</g>
<path d="M165.778 49.3727C154.149 50.6989 143.519 55.501 134.385 63.5043C122.806 73.6572 115.669 87.423 114.322 102.286C113.822 107.729 114.97 109.695 118.614 109.695C121.259 109.695 122.407 108.049 122.856 103.613C125.152 78.6879 144.866 59.2054 169.272 57.6962C174.462 57.376 175.211 57.1474 176.309 55.1808C176.958 53.9917 177.008 53.4429 176.559 51.9795C175.56 49.0068 173.514 48.5037 165.778 49.3727Z" fill="#5FD64D"/>
<path d="M117.566 118.613C116.867 118.979 115.969 119.894 115.62 120.671C115.071 121.952 115.121 122.546 116.119 125.565C117.866 130.596 120.461 132.242 124.054 130.55C125.452 129.864 126.6 128.126 126.6 126.708C126.6 126.297 126.001 124.467 125.352 122.729C124.653 120.946 124.104 119.482 124.104 119.437C124.104 119.391 123.455 119.025 122.607 118.613C120.81 117.744 119.263 117.744 117.566 118.613Z" fill="#5FD64D"/>
<path d="M273.033 102.378C261.105 104.07 251.522 111.616 247.53 122.455C246.082 126.434 245.433 132.333 246.332 133.843C247.28 135.489 249.626 136.358 251.622 135.763C253.718 135.123 254.667 133.34 255.066 129.178C255.615 123.324 259.757 117.104 265.297 113.857C268.491 111.936 271.436 111.067 275.828 110.564C280.27 110.107 281.817 108.964 281.817 106.082C281.817 102.835 278.773 101.555 273.033 102.378Z" fill="#5FD64D"/>
<path d="M215.843 260.551L256.981 264.205L265.683 248.128L285.461 241.795L300.492 214.026L317.633 210.128L330.818 183.09H337.938L358.243 158.487L353.76 136.321L362.199 109.769L353.76 88.3334L358.243 66.4103L353.76 50.3334L334.51 41.8077L313.15 37.6667L294.69 29.3846L272.012 33.2821H244.059L226.391 53.9872L216.897 44.4872L183.143 29.3846L149.653 33.2821L111.943 53.9872L92.6924 90.2821L100.867 139.974L215.843 260.551Z" fill="white"/>
<path d="M348.616 130.74C348.598 130.74 348.598 130.774 348.581 130.794C345.764 132.669 342.658 133.902 339.333 134.455C336.79 134.885 335.082 137.226 335.518 139.726C335.881 141.961 337.862 143.551 340.097 143.551C340.351 143.551 340.605 143.532 340.859 143.48C344.111 142.942 347.2 141.907 350.106 140.459C350.978 141.871 351.851 143.426 352.105 143.908C353.085 146.141 353.703 148.482 353.922 150.859C353.922 150.876 353.922 150.893 353.939 150.913C354.011 151.627 354.049 152.358 354.049 153.075C354.049 165.617 343.711 175.819 330.578 175.926C320.949 175.838 312.667 170.049 309.27 161.579C315.318 160.292 320.969 157.022 325.128 151.913C326.728 149.947 326.399 147.07 324.401 145.498C322.403 143.908 319.478 144.248 317.861 146.195C314.755 150.018 310.323 152.412 305.4 152.967C300.46 153.486 295.59 152.109 291.722 149.054C289.704 147.481 286.78 147.821 285.182 149.785C283.582 151.752 283.91 154.628 285.909 156.201C289.978 159.417 294.701 161.256 299.552 161.9C303.038 174.05 313.448 182.948 326.108 184.736C326.108 184.861 326.146 184.968 326.146 185.093C326.146 197.706 315.718 207.964 302.894 207.964C302.349 207.964 301.913 207.856 301.403 207.839C298.623 198.797 291.976 191.543 283.311 187.827C286.835 183.234 288.942 177.553 288.942 171.37C288.942 168.85 286.852 166.796 284.291 166.796C281.73 166.796 279.64 168.85 279.64 171.37C279.64 181.466 271.303 189.667 261.039 189.667C258.478 189.667 256.388 191.721 256.388 194.24C256.388 196.76 258.478 198.814 261.039 198.814C266.288 198.814 271.193 197.349 275.389 194.866C284.401 196.831 291.486 203.853 293.193 212.931C293.193 212.948 293.211 212.965 293.211 212.985C293.464 214.218 293.591 215.592 293.591 217.111C293.591 229.726 283.166 239.982 270.34 239.982C268.851 239.982 267.343 239.84 265.853 239.554C265.853 239.554 265.853 239.554 265.835 239.554C262.856 238.981 260.039 237.837 257.478 236.176C255.353 234.765 252.466 235.337 251.047 237.445C249.614 239.554 250.194 242.393 252.337 243.788C255.007 245.539 257.896 246.879 260.947 247.772C260.985 248.219 261.039 248.665 261.039 249.129C261.039 256.706 254.79 262.853 247.088 262.853C244.037 262.853 241.093 261.869 238.569 259.976C235.117 257.42 233.136 253.473 233.136 249.129V57.0182C233.136 44.4028 243.564 34.1474 256.388 34.1474C259.768 34.1474 263.038 34.8617 266.126 36.2557C266.798 36.5591 267.398 36.9162 268.033 37.2733C264.364 41.8836 262.02 47.3695 261.293 53.1587C258.041 53.9095 254.972 55.409 252.538 57.8034C250.721 59.5911 250.721 62.4847 252.538 64.2724C254.355 66.058 257.297 66.058 259.113 64.2724C262.637 60.8239 268.742 60.8239 272.266 64.2724C273.174 65.1652 274.354 65.6127 275.553 65.6127C276.753 65.6127 277.933 65.1652 278.841 64.2724C280.658 62.4847 280.658 59.5911 278.841 57.8034C276.571 55.5531 273.702 54.1225 270.685 53.3372C271.522 48.2795 274.065 43.581 277.987 40.0786C278.025 40.0442 278.079 40.0442 278.114 40.0076C282.347 36.2385 287.852 34.1474 293.591 34.1474C301.132 34.1474 308.235 37.7574 312.575 43.8305C312.595 43.8305 312.595 43.8305 312.595 43.8305C315.372 47.7094 316.845 52.2659 316.845 57.0182C316.845 59.5374 318.933 61.5919 321.494 61.5919C324.057 61.5919 326.146 59.5374 326.146 57.0182C326.146 52.4251 325.11 47.9955 323.221 43.8843C323.766 43.7768 324.311 43.6348 324.874 43.5638C325.401 43.4928 325.946 43.4196 326.472 43.3852C327.126 43.3314 327.816 43.2949 328.47 43.2949C342.568 43.2949 354.049 54.5872 354.049 68.4525C354.049 71.4019 353.449 74.403 352.177 77.9054C352.013 78.3507 351.777 78.7982 351.468 79.3876C350.868 80.6397 350.106 81.8358 349.27 82.9976C340.132 78.8347 329.197 79.0843 320.277 83.6752C316.626 81.283 312.249 79.8889 307.543 79.8889C304.982 79.8889 302.894 81.9434 302.894 84.4626C302.894 86.9818 304.982 89.0363 307.543 89.0363C315.245 89.0363 321.494 95.1827 321.494 102.76C321.494 105.279 323.585 107.333 326.146 107.333C328.706 107.333 330.797 105.279 330.797 102.76C330.797 98.2913 329.433 94.1457 327.163 90.6262C333.793 88.1779 341.513 88.7158 347.618 92.4311C347.673 92.4483 347.745 92.4483 347.782 92.4849C347.854 92.5387 347.889 92.6097 347.964 92.6635C354.683 96.8801 358.698 104.081 358.698 111.907C358.698 119.43 354.937 126.469 348.616 130.74ZM223.836 259.565L119.183 155.45C91.3169 127.739 91.3169 82.6749 119.2 54.9636C132.624 41.5437 150.483 34.1474 169.484 34.1474C188.485 34.1474 206.341 41.5437 219.785 54.9636L223.836 59.0189V259.565ZM357.1 88.0187C358.172 86.5171 359.098 84.9445 359.862 83.3547C360.26 82.5673 360.643 81.7649 360.932 80.9775C362.567 76.5285 363.349 72.4367 363.349 68.4525C363.349 49.5316 347.708 34.1474 328.47 34.1474C327.634 34.1474 326.745 34.2012 325.854 34.255C325.038 34.3088 324.274 34.397 323.585 34.5046C321.658 34.7541 319.77 35.165 317.916 35.7373C311.776 28.9649 302.929 25 293.591 25C286.889 25 280.421 27.0179 275.008 30.7526C273.446 29.6619 271.776 28.7325 269.994 27.9301C265.708 25.981 261.129 25 256.388 25C241.784 25 229.413 34.5046 225.29 47.548C210.228 33.0223 190.501 25 169.484 25C147.957 25 127.756 33.36 112.57 48.5484C81.1433 79.7813 81.1433 130.632 112.57 161.865L221.273 270.036C222.6 271.322 224.361 272 226.161 272C227.069 272 227.977 271.821 228.868 271.464C230.812 270.66 232.228 269.053 232.828 267.14C232.883 267.194 232.918 267.231 232.955 267.265C237.078 270.356 241.966 272 247.088 272C259.912 272 270.34 261.745 270.34 249.129C288.288 249.129 302.894 234.765 302.894 217.111C320.842 217.111 335.446 202.747 335.446 185.093C335.446 184.985 335.446 184.878 335.446 184.77C351.197 182.537 363.349 169.173 363.349 153.075C363.349 152.055 363.294 150.984 363.185 149.964C362.858 146.642 362.005 143.407 360.606 140.191C360.133 139.19 359.135 137.153 357.844 135.135C364.275 129.15 368 120.751 368 111.907C368 102.652 364.003 94.0403 357.1 88.0187Z" fill="#00983E"/>
<path d="M280.163 99.1C261.61 99.1 246.51 113.39 246.51 130.951C246.51 133.456 248.669 135.5 251.318 135.5C253.966 135.5 256.125 133.456 256.125 130.951C256.125 118.402 266.905 108.201 280.163 108.201C282.813 108.201 284.971 106.157 284.971 103.652C284.971 101.146 282.813 99.1 280.163 99.1Z" fill="#00983E"/>
<path d="M169.207 42.5499C152.703 42.5499 137.181 49.0789 125.496 60.9404C114.428 72.0943 107.974 86.9299 107.32 102.707C107.212 105.283 109.212 107.441 111.774 107.55C111.829 107.55 111.901 107.55 111.973 107.55C114.446 107.55 116.517 105.591 116.607 103.106C117.172 89.631 122.677 76.9725 132.112 67.4519C142.054 57.3854 155.211 51.8368 169.207 51.8368C171.769 51.8368 173.86 49.7493 173.86 47.1923C173.86 44.6352 171.769 42.5499 169.207 42.5499Z" fill="#00983E"/>
<path d="M118.829 119.463C118.029 116.93 115.142 115.459 112.356 116.186C109.569 116.894 107.953 119.519 108.73 122.07C109.263 123.801 109.897 125.514 110.593 127.209C111.373 129.125 113.38 130.3 115.49 130.3C116.104 130.3 116.739 130.206 117.333 130.002C120.058 129.072 121.43 126.314 120.406 123.857C119.811 122.404 119.278 120.952 118.829 119.463Z" fill="#00983E"/>
<g clip-path="url(#clip1_102_2)">
<path d="M73 388V393.153V402.962C73 419.004 73.6842 419.585 92.6711 419.585H105.5V479.348C105.5 516.171 105.842 541.688 106.355 545.678C109.947 571.861 127.993 595.467 153.053 606.688C165.796 612.423 176.401 614.085 200.776 614.085H219.079L219.421 619.239C219.507 622.148 219.507 651.572 219.25 684.737L218.822 744.999L205.566 745.415C191.368 745.83 188.974 746.495 187.605 750.069C187.092 751.233 186.75 756.137 186.75 760.958C186.75 770.683 187.947 774.423 191.539 776.086C193.079 776.751 206.25 777 236.27 777H278.947L281.599 774.59L284.25 772.179V760.958V749.737L281.599 747.576C279.033 745.498 278.691 745.415 266.461 745.415C259.533 745.415 253.375 745.082 252.776 744.75C251.921 744.168 251.75 730.536 251.921 679.251L252.178 614.501L274.414 614.002C297.507 613.421 304.092 612.589 312.901 609.181C339.158 598.875 357.118 579.009 363.961 552.577C364.645 550 365.158 528.306 365.414 484.419L365.928 420.001L379.355 419.752L392.697 419.585H393.179C395.842 419.585 398 417.427 398 414.765V403.793V392.821V388H393.04H369.862C347.882 388 346.428 388.083 342.75 389.829C340.27 390.909 337.961 392.821 336.592 394.899C334.368 398.224 334.283 398.722 333.684 415.762C333.257 425.404 333.086 457.987 333.257 488.159L333.428 543.018L331.204 549.003C324.447 566.874 311.533 577.928 292.803 581.669C289.895 582.251 281.257 582.5 270.138 582.334L252.178 582.084V501.043V420.001L265.605 419.752L279.033 419.502H279.25C282.011 419.502 284.25 417.264 284.25 414.502V414.432V403.626V392.821C284.25 390.158 282.092 388 279.429 388H278.947H236.27C206.25 388 193.079 388.249 191.539 388.914C187.947 390.494 188 394.151 188 403.626C188 413.102 187.947 417.092 191.539 418.671C192.822 419.253 198.724 419.585 206.421 419.585H219.25L219.421 499.962C219.592 544.265 219.507 580.921 219.336 581.419C218.908 582.999 182.987 582.832 176.23 581.253C159.296 577.347 146.724 566.292 139.967 549.252C138.599 545.844 138.428 539.278 138 472.366C137.572 392.572 137.829 396.977 132.697 392.488C127.822 388.166 126.882 388 101.737 388H78.3026H73Z" fill="#2C5291"/>
</g>
<defs>
<clipPath id="clip0_102_2">
<rect width="471" height="387.697" fill="white"/>
</clipPath>
<clipPath id="clip1_102_2">
<rect x="73" y="388" width="325" height="389" rx="5" fill="white"/>
</clipPath>
</defs>
</svg>
